<svg width="16" height="16" viewBox="0 0 16 16" fill="none" xmlns="http://www.w3.org/2000/svg">
    <path fill-rule="evenodd" clip-rule="evenodd" d="M14.246 6.062H1.754a.486.486 0 0 0-.492.492v7.23c0 .8.646 1.447 1.446 1.447h10.584c.8 0 1.447-.646 1.447-1.446V6.554a.486.486 0 0 0-.493-.492zM5.6 12.8a.486.486 0 0 1-.492.492h-.954a.486.486 0 0 1-.492-.492v-.954c0-.277.215-.492.492-.492h.954c.277 0 .492.215.492.492v.954zm3.354 0a.486.486 0 0 1-.492.492h-.954a.486.486 0 0 1-.493-.492v-.954c0-.277.216-.492.493-.492h.954c.276 0 .492.215.492.492v.954zm0-3.354a.486.486 0 0 1-.492.492h-.954a.486.486 0 0 1-.493-.492v-.954c0-.277.216-.492.493-.492h.954c.276 0 .492.215.492.492v.954zm3.384 0a.486.486 0 0 1-.492.492h-.954a.486.486 0 0 1-.492-.492v-.954c0-.277.215-.492.492-.492h.954c.277 0 .492.215.492.492v.954zm.954-7.23h-1.2v-.493a.959.959 0 0 0-.954-.954.959.959 0 0 0-.953.954v.492H5.846v-.492A.959.959 0 0 0 4.892.77a.959.959 0 0 0-.954.954v.492h-1.23c-.8 0-1.446.647-1.446 1.447v.492c0 .277.215.492.492.492h12.523a.486.486 0 0 0 .492-.492v-.492c-.03-.8-.677-1.447-1.477-1.447z" fill="#706E6B"/>
</svg>
