<svg width="16" height="16" viewBox="0 0 16 16" fill="none" xmlns="http://www.w3.org/2000/svg">
    <path fill-rule="evenodd" clip-rule="evenodd" d="m15.26 13.938-4.122-4.092a5.861 5.861 0 0 0 1.046-4.216C11.814 2.984 9.66.892 6.984.646 3.354.276.276 3.353.645 7.015c.247 2.646 2.339 4.83 4.985 5.2a5.861 5.861 0 0 0 4.215-1.046l4.093 4.092a.446.446 0 0 0 .646 0l.646-.646a.516.516 0 0 0 .03-.677zM2.46 6.43a3.979 3.979 0 0 1 3.97-3.97 3.979 3.979 0 0 1 3.97 3.97 3.979 3.979 0 0 1-3.97 3.97 3.96 3.96 0 0 1-3.97-3.97z" fill="#706E6B"/>
</svg>
