<svg width="16" height="16" viewBox="0 0 16 16" fill="none" xmlns="http://www.w3.org/2000/svg">
    <path fill-rule="evenodd" clip-rule="evenodd" d="M5.423 11.27c.185.184.462.153.646 0l3.077-3.078c.216-.215.585-.246.862 0s.246.677 0 .923l-3.785 3.723c-.83.831-2.215.831-3.046 0l-.03-.03a2.173 2.173 0 0 1 0-3.046l6.676-6.677c.83-.831 2.215-.831 3.046 0l.031.03c.83.831.83 2.216 0 3.047l-.03.03a.424.424 0 0 0-.062.554c.184.339.338.708.43 1.077.062.246.339.308.524.154.246-.246.461-.492.461-.492a4.03 4.03 0 0 0 0-5.693h-.062a4.03 4.03 0 0 0-5.692 0L1.792 8.438a4.03 4.03 0 0 0 0 5.693l.062.061a3.993 3.993 0 0 0 5.661 0l3.816-3.784c.984-.985.954-2.585-.062-3.57-.984-.953-2.584-.892-3.538.093L4.715 9.946a.483.483 0 0 0 0 .677l.708.646z" fill="#1A252D"/>
</svg>
