<svg width="24" height="24" viewBox="0 0 24 24" fill="none" xmlns="http://www.w3.org/2000/svg">
    <path d="m0 15.695 2.631 4.574 2.744-.612 2.847 1.652.843 2.682L14.34 24l.841-2.685 2.857-1.65 2.75.614 2.635-4.57-1.905-2.072-.003-3.294L23.42 8.27l-2.646-4.565-2.748.614-2.838-1.637L14.346 0H9.068l-.842 2.686L5.397 4.32l-2.748-.613-2.641 4.57 1.9 2.07-.006 3.275L0 15.695zm1.771-7.611L3.362 5.33l2.267.506 3.794-2.192.695-2.214h3.178l.696 2.212 3.803 2.192 2.268-.507 1.593 2.75-1.57 1.708.004 4.408 1.571 1.71-1.586 2.75-2.268-.506-3.822 2.208-.694 2.212-3.176-.005-.695-2.213-3.81-2.21-2.265.504-1.584-2.754 1.57-1.71.007-4.389L1.77 8.085l.001-.001z" fill="#2D6894"/>
    <path d="M11.714 18.66a6.66 6.66 0 1 0 0-13.32 6.66 6.66 0 0 0 0 13.32zm0-11.89a5.236 5.236 0 0 1 5.23 5.23 5.236 5.236 0 0 1-5.23 5.23A5.236 5.236 0 0 1 6.484 12a5.236 5.236 0 0 1 5.23-5.23z" fill="#2D6894"/>
</svg>
