<svg width="24" height="24" viewBox="0 0 24 24" fill="none" xmlns="http://www.w3.org/2000/svg">
    <rect x=".5" y=".5" width="23" height="23" rx="11.5" fill="#F2F0EE"/>
    <path fill-rule="evenodd" clip-rule="evenodd" d="M9.83 17.37 4.755 12.26a.483.483 0 0 1 0-.676l.677-.677a.483.483 0 0 1 .677 0l3.815 3.846a.335.335 0 0 0 .462 0l7.477-7.539a.483.483 0 0 1 .677 0l.676.677a.483.483 0 0 1 0 .677l-8.707 8.8a.435.435 0 0 1-.677 0z" fill="#DDDBDA"/>
    <rect x=".5" y=".5" width="23" height="23" rx="11.5" stroke="#DDDBDA"/>
</svg>
