<svg width="24" height="24" viewBox="0 0 24 24" fill="none" xmlns="http://www.w3.org/2000/svg">
    <path d="M16 3.902h6M16 8.902h6M16 13.902h6M2 18.902h20M2 22.902h20" stroke="#fff" stroke-width="1.5" stroke-linecap="round" stroke-linejoin="round"/>
    <path d="m1 10.71 1.46 2.539 1.523-.34 1.58.917.468 1.488 2.928.005.467-1.49 1.586-.915 1.526.34L14 10.718l-1.057-1.15-.002-1.828 1.056-1.15-1.468-2.534-1.525.34-1.575-.908L8.962 2h-2.93l-.467 1.49-1.57.908-1.525-.34-1.466 2.536L2.06 7.742 2.056 9.56 1 10.71zm.983-4.224.883-1.527 1.258.28L6.23 4.024l.385-1.229H8.38l.386 1.228 2.11 1.217 1.26-.282.883 1.526-.87.948.002 2.446.872.949-.88 1.526-1.26-.28-2.12 1.225-.386 1.228-1.763-.003-.385-1.228-2.115-1.227-1.256.28-.88-1.528.872-.949.003-2.436-.87-.947h.001z" fill="#fff" stroke="#fff" stroke-width=".5"/>
    <path d="M7.5 11a2.5 2.5 0 1 0 0-5 2.5 2.5 0 0 0 0 5zm0-4.463c1.083 0 1.963.88 1.963 1.963 0 1.083-.88 1.963-1.963 1.963A1.965 1.965 0 0 1 5.537 8.5c0-1.083.88-1.963 1.963-1.963z" fill="#fff" stroke="#fff" stroke-width=".5"/>
</svg>
