<svg width="16" height="16" viewBox="0 0 16 16" fill="none" xmlns="http://www.w3.org/2000/svg">
    <path fill-rule="evenodd" clip-rule="evenodd" d="M8 .615A7.367 7.367 0 0 0 .615 8 7.367 7.367 0 0 0 8 15.385 7.367 7.367 0 0 0 15.384 8 7.367 7.367 0 0 0 8 .615zm1.508 7.631 2.4 2.4a.297.297 0 0 1 0 .43l-.862.862a.298.298 0 0 1-.43 0l-2.4-2.4a.297.297 0 0 0-.432 0l-2.4 2.4a.298.298 0 0 1-.43 0l-.862-.861a.297.297 0 0 1 0-.43l2.4-2.4a.297.297 0 0 0 0-.432l-2.43-2.43a.297.297 0 0 1 0-.431l.86-.862a.297.297 0 0 1 .432 0l2.43 2.431a.297.297 0 0 0 .431 0l2.4-2.4a.297.297 0 0 1 .431 0l.862.862a.297.297 0 0 1 0 .43l-2.4 2.4a.37.37 0 0 0 0 .431z" fill="#B0ADAB"/>
</svg>
