<svg xmlns="http://www.w3.org/2000/svg" width="30" height="30">
    <path fill-rule="evenodd" fill="#464D55" d="M14.999 0c8.285 0 15 6.715 15 15 0 8.284-6.715 15-15 15C6.715 30 0 23.284 0 15 0 6.715 6.715 0 14.999 0z"/>
    <path fill-rule="evenodd" fill="#FFF" d="M23 16.285C23 20.545 19.418 24 15 24c-4.419 0-8.001-3.455-8.001-7.715 0-3.971 3.112-6.805 7.112-7.664v-.907l-1.778-.857v-.858H17.666v.858l-1.777.856v.001h-.001v.907c1.386.148 2.662.639 3.742 1.579l1.301-1.453 1.885 1.818-1.301 1.255C22.447 13.81 23 14.619 23 16.285zm-8-6c-3.432 0-6.223 2.692-6.223 6s2.791 6 6.223 6c3.43 0 6.222-2.692 6.222-6s-2.792-6-6.222-6zm0 7.286c-.737 0-1.334-.576-1.334-1.286 0-.463.267-.85.648-1.076l.403-3.21h.593l.406 3.23c1.074.229.617.606.617 1.056 0 .71-.597 1.286-1.333 1.286z"/>
</svg>
