<svg width="24" height="24" viewBox="0 0 24 24" fill="none" xmlns="http://www.w3.org/2000/svg">
    <path fill-rule="evenodd" clip-rule="evenodd" d="m22.891 20.907-6.184-6.139c1.246-1.754 1.892-3.969 1.569-6.323-.554-3.969-3.785-7.107-7.8-7.477C5.03.414.414 5.03.968 10.522c.37 3.97 3.508 7.246 7.477 7.8 2.354.323 4.57-.323 6.323-1.57l6.139 6.14a.67.67 0 0 0 .969 0l.97-.97a.774.774 0 0 0 .045-1.015zM3.691 9.645c0-3.277 2.677-5.954 5.954-5.954 3.277 0 5.954 2.677 5.954 5.954 0 3.277-2.677 5.954-5.954 5.954a5.939 5.939 0 0 1-5.954-5.954z" fill="#fff"/>
</svg>
