<svg xmlns="http://www.w3.org/2000/svg" width="24" height="24">
    <path fill-rule="evenodd" fill="#FFF" d="m19.67 15.456.985.995c.219.224.343.526.344.841V18c0 .662-.531 1.2-1.187 1.2H3.187A1.194 1.194 0 0 1 2 18v-.708c.1-.315.125-.617.344-.841l.986-.995a3.623 3.623 0 0 0 1.045-2.544V9.6c0-1.18.5-3.074 1.425-4.32l1.068-1.441a3.552 3.552 0 0 1 2.85-1.44h.594V.6c0-.332.266-.6.594-.6h2.024c-.509 0-.243.268-.243.6v1.799h.594c1.121 0 2.177.534 2.849 1.44L17.2 5.28c.924 1.246 1.424 3.14 1.424 4.32v3.312c.001.954.476 1.869 1.046 2.544zm-8.171 8.543c1.312 0 2.375-1.074 2.375-2.4H9.125c0 1.326 1.063 2.4 2.374 2.4z"/>
</svg>
