<svg width="40" height="40" viewBox="0 0 40 40" fill="none" xmlns="http://www.w3.org/2000/svg">
    <path fill-rule="evenodd" clip-rule="evenodd" d="m12.428 23.492 4.108 4.108a.446.446 0 0 0 .646 0l10.246-10.292a.446.446 0 0 0 0-.646L23.367 12.6a.446.446 0 0 0-.646 0L12.428 22.892c-.184.185-.184.462 0 .6zm12.277-12.784a.446.446 0 0 0 0 .646l4.062 4.061a.446.446 0 0 0 .646 0l1.154-1.153c.738-.693.738-1.8 0-2.539l-2.17-2.17a1.839 1.839 0 0 0-2.63 0l-1.062 1.155zM9.013 30.323a.67.67 0 0 0 .785.785l5.03-1.2a.893.893 0 0 0 .416-.231l.092-.092c.092-.093.139-.416-.046-.6l-4.154-4.154c-.185-.185-.508-.139-.6-.046l-.092.092c-.139.138-.185.277-.231.415l-1.2 5.031z" fill="#1A252D"/>
</svg>
