<svg width="24" height="24" viewBox="0 0 24 24" fill="none" xmlns="http://www.w3.org/2000/svg">
    <path d="m14.468 12.661 2.116-2.117.22.22-2.69 2.69-1.38-1.38.22-.22.807.807.354.354.353-.354z" fill="#2D6894" stroke="#2D6894"/>
    <path d="m3.614 8.687.038-.136-.038-.135L1.66 1.5h18.704l1.93 7.052-1.851 6.764-.036.132.036.133 1.893 6.919H3.697l-1.992-7.052 1.909-6.76zm5.862-.655.103.364h11.695v-.5l.483-.132-1.528-5.585-.101-.368H7.719l.179.636 1.578 5.585zM2.732 1.811h-.66l.18.636 1.576 5.585.103.364h5.324l-.18-.636L7.5 2.175l-.103-.364H2.732zM4.31 8.707H3.93l-.103.364-1.577 5.585-.18.636H7.397l.103-.364 1.577-5.585.18-.636H4.31zm3.189 7.26-.103-.364H2.732v.5l-.48.136 1.576 5.585.103.364h5.324l-.18-.636L7.5 15.967zm1.977 5.857.103.364h11.696v-.5l.482-.132-1.528-5.585-.101-.368H7.72l.179.636 1.577 5.585zm-1.578-7.168-.18.636H19.747v-.5l.482.132 1.528-5.585.173-.632H9.578l-.103.364-1.577 5.585z" stroke="#2D6894"/>
</svg>
