<svg width="16" height="16" viewBox="0 0 16 16" fill="none" xmlns="http://www.w3.org/2000/svg">
    <path fill-rule="evenodd" clip-rule="evenodd" d="M14.923 9.538H14a.473.473 0 0 0-.462.462v3.077a.473.473 0 0 1-.461.462H2.923a.473.473 0 0 1-.461-.462V10A.473.473 0 0 0 2 9.538h-.923A.473.473 0 0 0 .615 10v4.154c0 .677.554 1.23 1.231 1.23h12.308c.677 0 1.23-.553 1.23-1.23V10a.473.473 0 0 0-.461-.462zm-7.23 2.031a.446.446 0 0 0 .645 0l4.154-4.154a.446.446 0 0 0 0-.646l-.646-.646a.446.446 0 0 0-.646 0L9.477 7.846c-.185.185-.523.062-.523-.215V1.077C8.923.83 8.677.615 8.462.615h-.924a.473.473 0 0 0-.461.462V7.6c0 .277-.339.4-.523.215L4.83 6.092a.446.446 0 0 0-.646 0l-.647.677a.446.446 0 0 0 0 .646l4.154 4.154z" fill="#2D6894"/>
</svg>
