<svg width="17" height="16" viewBox="0 0 17 16" fill="none" xmlns="http://www.w3.org/2000/svg">
    <path fill-rule="evenodd" clip-rule="evenodd" d="m3.253 10.277 2.738 2.738a.297.297 0 0 0 .43 0l6.832-6.861a.297.297 0 0 0 0-.431l-2.708-2.708a.297.297 0 0 0-.43 0L3.252 9.877c-.123.123-.123.307 0 .4zm8.184-8.523a.297.297 0 0 0 0 .43l2.708 2.708a.297.297 0 0 0 .43 0l.77-.77c.492-.46.492-1.2 0-1.691L13.899.984a1.226 1.226 0 0 0-1.754 0l-.708.77zM.976 14.83a.447.447 0 0 0 .523.523l3.354-.8a.595.595 0 0 0 .277-.154l.061-.062c.062-.061.092-.277-.03-.4L2.39 11.17c-.123-.123-.338-.092-.4-.03l-.061.06a.63.63 0 0 0-.154.278l-.8 3.354z" fill="#fff"/>
</svg>
