<svg width="24" height="24" viewBox="0 0 24 24" fill="none" xmlns="http://www.w3.org/2000/svg">
    <path d="m.802 18.673 9.273-16.061A2.196 2.196 0 0 1 12 1.5c.805 0 1.522.414 1.925 1.111l9.273 16.062a2.193 2.193 0 0 1 0 2.222 2.196 2.196 0 0 1-1.925 1.111H2.727a2.195 2.195 0 0 1-1.925-1.111 2.193 2.193 0 0 1 0-2.222zm22.152 2.082.192-.332-.03-.03c.174-.52.12-1.09-.163-1.58l-9.272-16.06v-.001c-.35-.605-.981-.97-1.681-.97-.7 0-1.331.365-1.68.97L1.045 18.814a1.926 1.926 0 0 0 0 1.94c.35.608.98.972 1.68.972h18.548c.7 0 1.33-.366 1.68-.97z" fill="#2D6894" stroke="#2D6894"/>
    <path d="M10.553 18.117c0-.797.649-1.447 1.447-1.447s1.447.65 1.447 1.447A1.45 1.45 0 0 1 12 19.564a1.45 1.45 0 0 1-1.447-1.447zm.281 0a1.166 1.166 0 1 0 2.333 0 1.166 1.166 0 0 0-2.333 0z" stroke="#2D6894"/>
    <path d="M11.445 7.456h-.5v7.296h-.281V7.174h2.672v7.578h-.281V7.456h-1.61z" fill="#2D6894" stroke="#2D6894"/>
</svg>
