<svg width="24" height="24" viewBox="0 0 24 24" fill="none" xmlns="http://www.w3.org/2000/svg">
    <path d="M20 10.995v-3.13C20 5.733 18.345 4 16.311 4s-3.688 1.734-3.688 3.865V10.5H4V20h11.685v-9.5h-2.153V7.865c0-1.605 1.246-2.912 2.779-2.912 1.532 0 2.779 1.307 2.779 2.912v3.13H20zm-5.225 8.052H4.91v-7.594h9.865v7.594z" fill="#B0BEC4"/>
    <path d="M9.388 15.094v3.016h.91v-3.016c.528-.197.908-.726.908-1.346 0-.788-.612-1.428-1.363-1.428s-1.363.64-1.363 1.428c0 .62.38 1.15.908 1.346zm.455-1.821c.25 0 .453.213.453.474a.465.465 0 0 1-.453.475.465.465 0 0 1-.453-.475c0-.261.203-.474.453-.474z" fill="#B0BEC4"/>
</svg>
