<svg width="24" height="24" viewBox="0 0 24 24" fill="none" xmlns="http://www.w3.org/2000/svg">
    <path d="M8.552 3.133 1 1v19.747l7.552 2.067 6.896-1.887L23 22.993V3.318l-7.55-2.133-6.898 1.948zm6.24 16.614-5.585 1.528V4.31l5.586-1.577v4.856c-1.01 1.094-1.316 2.804-.455 4.256l.455.766v7.136zm.6-8.527a2.33 2.33 0 0 1-.034-2.338A2.23 2.23 0 0 1 17.293 7.7h.14a2.23 2.23 0 0 1 1.934 1.183 2.33 2.33 0 0 1-.033 2.338l-1.971 3.322-1.972-3.322zM2.31 2.733 7.896 4.31v16.965l-5.585-1.528V2.733zm19.38 18.542-5.586-1.528V14.82l1.258 2.121 3.025-5.096c1.376-2.32-.228-5.302-2.924-5.37h-.202c-.415.01-.803.09-1.16.225V2.733l5.586 1.577v16.965h.002z" fill="#2D6894"/>
    <path d="M18.098 10.731a1.04 1.04 0 1 0-1.47-1.47 1.04 1.04 0 0 0 1.47 1.47z" fill="#2D6894"/>
</svg>
