<svg width="24" height="24" viewBox="0 0 24 24" fill="none" xmlns="http://www.w3.org/2000/svg">
    <path d="M1.461 23.376h-.042a.964.964 0 0 1-.919-.961v-9.822a2.274 2.274 0 0 1 2.27-2.271H3.335l.07-.417 1.112-6.603a.957.957 0 0 1 .948-.802h13.071c.472 0 .87.337.948.802l1.112 6.603.07.417h.563a2.275 2.275 0 0 1 2.272 2.271v9.82c0 .53-.432.963-.962.963h-2.04a.963.963 0 0 1-.962-.962v-1.798H4.463v1.798c0 .53-.432.962-.962.962H1.46zm-.032-2.76h-.5v1.798c0 .294.238.532.532.532h2.04a.532.532 0 0 0 .532-.532v-1.798H1.429zm19.037 0h-.5v1.798c0 .294.238.532.532.532h2.04a.532.532 0 0 0 .532-.532v-1.798h-2.604zM4.943 3.364l-.002.01-1.073 6.364-.098.584h16.459l-.097-.584-1.072-6.36a.53.53 0 0 0-.525-.448H5.464a.532.532 0 0 0-.522.434zm17.627 16.823h.5v-7.594c0-1.015-.825-1.84-1.84-1.84H2.768c-1.015 0-1.84.825-1.84 1.84v7.594h21.64z" fill="#2D6894" stroke="#fff"/>
    <path d="M7.76 15.47a2.179 2.179 0 0 1-2.175 2.175A2.179 2.179 0 0 1 3.41 15.47c0-1.199.976-2.176 2.175-2.176 1.2 0 2.176.977 2.176 2.176zm-.363 0a1.813 1.813 0 0 0-3.623 0 1.813 1.813 0 0 0 3.623 0z" stroke="#fff"/>
    <path d="M20.59 15.47a2.179 2.179 0 0 1-2.176 2.175 2.179 2.179 0 0 1-2.176-2.175c0-1.199.977-2.176 2.176-2.176 1.199 0 2.175.977 2.175 2.176zm-.365 0a1.813 1.813 0 0 0-3.623 0 1.813 1.813 0 0 0 3.623 0z" fill="#2D6894" stroke="#fff"/>
</svg>
