<svg width="57" height="48" viewBox="0 0 57 48" fill="none" xmlns="http://www.w3.org/2000/svg">
    <g clip-path="url(#tcle58sl2a)">
        <path d="M23.514 2.59.794 39.76c-2.207 3.62.383 8.24 4.62 8.24h45.44c4.238 0 6.828-4.62 4.621-8.24L32.755 2.59c-2.119-3.443-7.122-3.443-9.24 0zm1.678 10.094h5.886V27.4h-5.886V12.684zm2.943 26.487a3.68 3.68 0 0 1-3.679-3.679 3.68 3.68 0 0 1 3.679-3.678 3.68 3.68 0 0 1 3.678 3.678 3.68 3.68 0 0 1-3.678 3.679z" fill="#E89261"/>
    </g>
    <defs>
        <clipPath id="tcle58sl2a">
            <path fill="#fff" d="M0 0h56.27v48H0z"/>
        </clipPath>
    </defs>
</svg>
