<svg width="20" height="20" viewBox="0 0 20 20" fill="none" xmlns="http://www.w3.org/2000/svg">
    <path d="M15.833 16.667H4.167v.833a.833.833 0 0 1-.834.833H2.5a.833.833 0 0 1-.833-.833V10L3.76 4.415a1.667 1.667 0 0 1 1.56-1.082h9.357a1.667 1.667 0 0 1 1.561 1.082L18.333 10v7.5a.833.833 0 0 1-.833.833h-.833a.833.833 0 0 1-.834-.833v-.833zM3.447 10h13.106l-1.875-5H5.322l-1.875 5zm1.97 4.167a1.25 1.25 0 1 0 0-2.5 1.25 1.25 0 0 0 0 2.5zm9.166 0a1.25 1.25 0 1 0 0-2.5 1.25 1.25 0 0 0 0 2.5z" fill="#000"/>
</svg>
