<svg width="24" height="24" viewBox="0 0 24 24" fill="none" xmlns="http://www.w3.org/2000/svg">
    <path d="m16.584 9.837-2.47 2.47-1.16-1.159-.926.926 2.086 2.087 3.397-3.397-.927-.927z" fill="#fff"/>
    <path d="M20.747 1H1l2.133 7.552-1.948 6.896L3.318 23h19.674l-2.066-7.552 1.887-6.896L20.747 1zm.527 6.896H9.957L8.38 2.311h11.367l1.529 5.585zM2.732 2.311h4.285l1.578 5.585H4.31L2.732 2.311zM4.31 9.207h4.285l-1.578 5.585H2.732L4.31 9.207zm-1.578 6.896h4.285l1.578 5.585H4.31l-1.578-5.585zm18.543 5.585H9.957L8.38 16.103h11.366l1.529 5.585zm-1.528-6.896H8.38l1.577-5.585h11.319l-1.529 5.585h.001z" fill="#fff"/>
</svg>
