<svg xmlns="http://www.w3.org/2000/svg" width="24" height="24">
    <path fill-rule="evenodd" fill="#FFF" d="M11.999 23.999C5.372 23.999 0 18.627 0 12 0 5.372 5.372 0 11.999 0c6.628 0 12 5.372 12 12 0 6.627-5.372 11.999-12 11.999zm8.63-7.8H17.5c-.756 2.401-1.248 3.413-1.88 4.686a9.658 9.658 0 0 0 5.009-4.686zm-8.63 5.4c.365 0 .723-.024 1.761-.064.122-.899.99-2.718 1.468-5.336H8.771c.478 2.618 1.345 4.437 2.152 5.336.354.04.712.064 1.076.064zm-3.619-.714c-.633-1.273-1.125-2.285-1.431-4.686H3.37a9.652 9.652 0 0 0 5.01 4.686zM2.889 8.999A9.556 9.556 0 0 0 2.4 12a9.5 9.5 0 0 0 .329 2.399h3.983A26.287 26.287 0 0 1 6.6 12c0-1.039.066-2.04.178-3.001H2.889zM3.72 7.2h3.83c-.185-1.563.267-2.955.83-4.086C6.408 3.92 4.782 5.377 3.72 7.2zm10.04-4.736c-1.038-.04-1.396-.065-1.761-.065-.364 0-.722.025-1.076.065-.745.831-1.55 2.432-2.046 4.736h6.244c-.495-2.304-1.3-3.905-1.361-4.736zm1.652 6.535H8.586A24.465 24.465 0 0 0 8.399 12c0 .857.052 1.645.125 2.399h6.951A24.9 24.9 0 0 0 15.599 12c0-1.088-.073-2.079-.187-3.001zm.208-5.885c.562 1.131 1.014 2.523 1.324 4.086h3.335c-1.062-1.823-2.688-3.28-4.659-4.086zm5.49 5.885h-3.889c.112.961.179 1.962.179 3.001 0 .823-.041 1.624-.113 2.399h3.983A9.5 9.5 0 0 0 21.6 12a9.557 9.557 0 0 0-.49-3.001z"/>
</svg>
