<svg width="24" height="24" viewBox="0 0 24 24" fill="none" xmlns="http://www.w3.org/2000/svg">
    <path d="M1.461 23.876h2.04c.806 0 1.462-.656 1.462-1.462v-1.298h14.074v1.298c0 .806.655 1.462 1.462 1.462h2.039c.806 0 1.462-.656 1.462-1.462v-9.82a2.775 2.775 0 0 0-2.771-2.772h-.14l-1.113-6.603A1.457 1.457 0 0 0 18.536 2H5.463c-.716 0-1.323.513-1.441 1.22L2.91 9.821h-.14A2.774 2.774 0 0 0 0 12.593v9.822c0 .806.656 1.462 1.462 1.462l-.001-.001zm2.072-1.462a.032.032 0 0 1-.032.032H1.46a.032.032 0 0 1-.032-.032v-1.298h2.104v1.298zm19.037 0a.032.032 0 0 1-.032.032h-2.04a.032.032 0 0 1-.032-.032v-1.298h2.104v1.298zM5.433 3.456a.032.032 0 0 1 .031-.026h13.07a.03.03 0 0 1 .031.026l1.073 6.366H4.36l1.073-6.366zm-4.004 9.137c0-.74.601-1.34 1.34-1.34h18.46c.739 0 1.34.6 1.34 1.34v7.094H1.43v-7.094z" fill="#2D6894"/>
    <path d="M5.585 18.145c1.475 0 2.676-1.2 2.676-2.675 0-1.475-1.2-2.676-2.676-2.676A2.679 2.679 0 0 0 2.91 15.47c0 1.475 1.2 2.675 2.675 2.675zm0-3.986a1.313 1.313 0 0 1 0 2.622 1.313 1.313 0 0 1 0-2.622zM18.414 18.145c1.475 0 2.675-1.2 2.675-2.675 0-1.475-1.2-2.676-2.675-2.676a2.679 2.679 0 0 0-2.676 2.676c0 1.475 1.2 2.675 2.676 2.675zm0-3.986a1.312 1.312 0 0 1 0 2.622 1.313 1.313 0 0 1 0-2.622z" fill="#2D6894"/>
</svg>
