<svg width="24" height="24" viewBox="0 0 24 24" fill="none" xmlns="http://www.w3.org/2000/svg">
    <path d="M6.96 19.302h9.243v-6.374h.838l4.687 4.698v-4.698h2.273V0H7.798v6.374H0v12.928h2.273V24l4.687-4.698zM9.228 1.43h13.343v10.068h-2.273v2.67l-2.663-2.67H9.228V1.43zM1.43 17.872V7.804h6.368v5.124h6.975v4.944H6.366l-2.663 2.67v-2.67H1.43z" fill="#2D6894"/>
    <path d="M16.614 5.657h-1.43v1.43h1.43v-1.43zM19.68 5.657h-1.429v1.43h1.43v-1.43zM13.547 5.657h-1.43v1.43h1.43v-1.43z" fill="#2D6894"/>
</svg>
