<svg width="24" height="24" viewBox="0 0 24 24" fill="none" xmlns="http://www.w3.org/2000/svg">
    <path d="M17.293 7.199h.155m-.155 0 .14.5m-.14-.5h-.013a2.729 2.729 0 0 0-2.36 1.441 2.83 2.83 0 0 0 .041 2.835l1.972 3.322.43.725.43-.725 1.971-3.322-.43-.255.43.255M17.293 7.2l2.471 4.276M17.448 7.2h.003l-.018.5m.015-.5a.21.21 0 0 1-.003 0l-.012.5m.015-.5a2.729 2.729 0 0 1 2.357 1.441M17.433 7.7a2.23 2.23 0 0 1 1.934 1.183m.438-.242-.438.242m.438-.242a2.83 2.83 0 0 1-.041 2.835m.04-2.835-.437.242m0 0 .397 2.593M8.416 3.614l.136.038.136-.038 6.761-1.909L22.5 3.696v18.642l-6.92-1.893-.132-.037-.132.037-6.764 1.85-7.052-1.93V1.662l6.916 1.953zm6.509 16.615.368-.1V12.474l-.07-.118-.455-.766c-.74-1.247-.48-2.717.392-3.662l.133-.144V2.072l-.636.18L9.07 3.828l-.364.102V21.93l.632-.172 5.586-1.529zM2.447 2.251l-.636-.18V20.13l.368.1 5.585 1.529.632.172V3.931l-.364-.102L2.447 2.25zM21.69 21.775l.067-.5h.431V3.931l-.364-.102L16.24 2.25l-.636-.18v5.352l.676-.256c.305-.115.638-.184.995-.193a3.486 3.486 0 0 1 .183 0c2.3.063 3.687 2.616 2.5 4.615l-2.594 4.371-.829-1.397-.93-1.567V20.13l.369.1 5.215 1.427v.12h.502z" fill="#2D6894" stroke="#fff"/>
    <path d="M17.745 9.615a.54.54 0 1 1-.763.763.54.54 0 0 1 .763-.763z" stroke="#fff"/>
</svg>
