<svg width="24" height="24" viewBox="0 0 24 24" fill="none" xmlns="http://www.w3.org/2000/svg">
    <path d="M14.358 2.361A2.696 2.696 0 0 0 12 1c-.984 0-1.866.51-2.358 1.361L.37 18.423a2.693 2.693 0 0 0 0 2.722 2.695 2.695 0 0 0 2.358 1.361h18.546c.984 0 1.866-.509 2.358-1.361a2.693 2.693 0 0 0 0-2.722L14.358 2.361zm8.163 18.144c-.26.451-.726.72-1.247.72H2.726c-.52 0-.987-.268-1.247-.72-.26-.45-.26-.99 0-1.44l9.273-16.063c.26-.45.727-.72 1.248-.72s.987.27 1.248.72l9.272 16.062c.261.45.261.99 0 1.44l.001.001z" fill="#fff"/>
    <path d="M12 16.17a1.949 1.949 0 0 0-1.947 1.947A1.95 1.95 0 0 0 12 20.064a1.95 1.95 0 0 0 1.947-1.947A1.948 1.948 0 0 0 12 16.17zm0 2.613a.666.666 0 1 1 0-1.333.666.666 0 0 1 0 1.333zM11.445 7.956h1.11v7.296h1.281V6.675h-3.672v8.578h1.281V7.956z" fill="#fff"/>
</svg>
