<svg width="17" height="16" viewBox="0 0 17 16" fill="none" xmlns="http://www.w3.org/2000/svg">
    <path fill-rule="evenodd" clip-rule="evenodd" d="m3.412 10.277 2.739 2.738a.298.298 0 0 0 .43 0l6.831-6.861a.297.297 0 0 0 0-.431l-2.708-2.708a.297.297 0 0 0-.43 0L3.412 9.877c-.123.123-.123.308 0 .4zm8.185-8.523a.297.297 0 0 0 0 .43l2.708 2.708a.297.297 0 0 0 .43 0l.77-.769c.492-.461.492-1.2 0-1.692L14.058.985a1.226 1.226 0 0 0-1.753 0l-.708.769zM1.135 14.83a.447.447 0 0 0 .523.523l3.354-.8a.596.596 0 0 0 .277-.154l.062-.062c.061-.061.092-.276-.031-.4L2.55 11.17c-.122-.123-.338-.092-.4-.03l-.06.061a.629.629 0 0 0-.155.277l-.8 3.354z" fill="#fff"/>
</svg>
