<svg width="90" height="90" viewBox="0 0 90 90" fill="none" xmlns="http://www.w3.org/2000/svg">
    <circle cx="45" cy="45" r="44.5" fill="#fff" stroke="#E5E5E5"/>
    <path d="M30.784 39.91h1.944V49h-1.944v-9.09zm-.126-3.816h2.232v2.052h-2.232v-2.052zm4.75 3.816h1.871v1.116a3.76 3.76 0 0 1 1.08-.936c.444-.276.972-.414 1.584-.414.684 0 1.254.138 1.71.414.456.264.804.648 1.044 1.152.252-.42.624-.786 1.116-1.098.492-.312 1.08-.468 1.764-.468 1.092 0 1.908.318 2.448.954.54.624.81 1.476.81 2.556V49h-1.944v-5.598c0-.684-.162-1.2-.486-1.548-.324-.348-.756-.522-1.296-.522-.504 0-.93.15-1.278.45a2.54 2.54 0 0 0-.738 1.062V49H41.15v-5.598c0-.684-.162-1.2-.486-1.548-.324-.348-.756-.522-1.296-.522-.504 0-.93.144-1.278.432a2.56 2.56 0 0 0-.738 1.044V49h-1.944v-9.09zm19.253 8.586a3.787 3.787 0 0 1-1.53-.306 3.627 3.627 0 0 1-1.188-.9 4.23 4.23 0 0 1-.792-1.386 5.73 5.73 0 0 1-.27-1.818c0-.66.09-1.26.27-1.8.192-.552.456-1.02.792-1.404A3.418 3.418 0 0 1 53.131 40a3.606 3.606 0 0 1 1.53-.324c.552 0 1.056.126 1.512.378.468.252.858.588 1.17 1.008V39.91h1.872v8.118a5 5 0 0 1-.324 1.836 3.834 3.834 0 0 1-.882 1.404c-.384.384-.84.678-1.368.882a4.57 4.57 0 0 1-1.746.324c-.504 0-.96-.06-1.368-.18a4.355 4.355 0 0 1-1.098-.486 3.254 3.254 0 0 1-.81-.702 4.209 4.209 0 0 1-.54-.846l1.368-.882c.24.444.546.798.918 1.062.372.276.858.414 1.458.414.732 0 1.32-.24 1.764-.72.456-.468.684-1.134.684-1.998v-.9c-.312.384-.69.69-1.134.918a3.183 3.183 0 0 1-1.476.342zm.414-1.656c.48 0 .918-.126 1.314-.378.396-.264.69-.624.882-1.08v-2.556a2.371 2.371 0 0 0-.882-1.08 2.247 2.247 0 0 0-1.314-.414c-.672 0-1.218.234-1.638.702-.408.468-.612 1.152-.612 2.052 0 .9.204 1.584.612 2.052.42.468.966.702 1.638.702z" fill="#B0BEC4"/>
</svg>
