<svg width="111" height="30" viewBox="0 0 111 30" fill="none" xmlns="http://www.w3.org/2000/svg">
    <path d="M10.535 0v4.98H3.808V0H.117v13.068h3.691V7.815h6.727v5.253h3.707V0h-3.707zM27.93 0l-3.872 5.18L20.178 0h-4.364l6.39 8.54v4.528h3.708V8.539L32.31 0h-4.38zM44.957 0v9.575c0 .372-.328.664-.79.664h-5.936V0h-3.7v13.061h10.942c.978 0 1.76-.232 2.323-.717.571-.478.86-1.135.86-1.952V0h-3.699zM63.627 0H52.685v13.061h3.691V2.835h5.937c.485 0 .782.306.782.651v9.582h3.707V2.676c0-.823-.281-1.474-.852-1.959C65.379.246 64.597 0 63.627 0zM81.475 0H70.541v13.061h10.934c.978 0 1.76-.232 2.324-.717.578-.478.86-1.135.86-1.952V2.676c0-.823-.282-1.474-.86-1.959C83.227.246 82.445 0 81.475 0zm-.516 3.513v6.055c0 .359-.313.678-.79.678h-5.928v-7.41h5.913c.477 0 .805.278.805.677zM91.644 0c-.978 0-1.753.246-2.324.724-.563.478-.844 1.135-.844 1.959v10.385h3.692V9.03h6.726v4.037h3.692V0H91.644zm7.242 2.835v3.36H92.16V3.5c0-.325.29-.664.782-.664h5.944zM106.864 0v13.068h3.692V0h-3.692zM110.556 19.509H.116V17.51h110.44v1.999zM15.525 27.902l-1.791-4.482h-2.3v6.533h1.729v-3.99l1.588 3.99h1.525l1.619-3.99v3.99h1.713V23.42h-2.3l-1.783 4.482zM28.954 24.84h2.581v5.113h1.705v-5.112h2.675V23.42h-6.96v1.42zM57.385 24.27v4.707s.07.718 1.04.97h4.655s1.141-.126 1.235-.956v-3.028h-3.652v1.361h1.9v1.03s.016.192-.234.198c-.25.007-2.902 0-2.902 0s-.391-.046-.391-.298v-3.181s-.055-.22.242-.226h5.037v-1.434h-5.858c0 .007-.962.1-1.072.857zM87.701 28.48s.016.232-.203.205h-3.3l.007-5.272h-1.72v6.534h5.803s1.08-.24 1.118-.936c.032-.698 0-5.598 0-5.598h-1.705v5.066zM79.786 23.446h-4.38c-.688 0-1.251.478-1.251 1.063v4.409c0 .584.563 1.062 1.251 1.062h4.38c.688 0 1.252-.478 1.252-1.062v-4.41c0-.584-.564-1.062-1.252-1.062zm-.399 4.967c0 .1-.094.18-.211.18h-3.207c-.117 0-.21-.08-.21-.18v-3.36c0-.1.093-.18.21-.18h3.207c.117 0 .211.08.211.18v3.36zM26.67 23.466h-4.38c-.688 0-1.251.478-1.251 1.063v4.409c0 .584.563 1.062 1.252 1.062h4.38c.688 0 1.25-.478 1.25-1.063v-4.409c0-.584-.562-1.062-1.25-1.062zm-.406 4.967c0 .1-.094.172-.204.172h-3.206c-.118 0-.212-.08-.212-.172v-3.367c0-.1.094-.179.212-.179h3.206c.118 0 .204.08.204.18v3.366zM42.572 23.446h-4.38c-.689 0-1.252.478-1.252 1.063v4.409c0 .584.563 1.062 1.252 1.062h4.38c.688 0 1.251-.478 1.251-1.062v-4.41c.008-.584-.555-1.062-1.251-1.062zm-.4 4.967c0 .1-.093.18-.203.18h-3.222c-.11 0-.203-.08-.203-.18v-3.36c0-.1.093-.18.203-.18h3.222c.11 0 .204.08.204.18v3.36zM72.716 26.906v-2.43s.015-.95-1.424-1.063h-5.538v6.534h1.698v-2.105h2.104l1.713 2.105h1.798l-1.72-2.092c.008 0 1.08-.093 1.369-.95zm-1.612-.704c0 .232-.258.219-.258.219h-3.402v-1.654h3.402c.266 0 .258.306.258.306v1.129zM52.106 26.906v-2.43s.008-.95-1.424-1.063h-5.537v6.534h1.697v-2.105h2.096l1.721 2.105h1.807l-1.721-2.092c-.008 0 1.08-.093 1.36-.95zm-1.611-.704c0 .232-.258.219-.258.219h-3.403v-1.654h3.403c.265 0 .258.306.258.306v1.129zM96.462 23.42h-5.6v6.533h1.822v-1.892h3.88s1.094-.04 1.227-.837V24.39s.07-.857-1.33-.97zm-.259 1.587v1.34c0 .266-.266.247-.266.247h-3.261V24.84h3.191c.462.006.336.166.336.166z" fill="#999"/>
</svg>
