<svg xmlns="http://www.w3.org/2000/svg" width="30" height="30">
    <path fill-rule="evenodd" fill="#464D55" d="M14.999 0c8.285 0 15 6.715 15 15 0 8.284-6.715 15-15 15C6.715 30 0 23.284 0 15 0 6.715 6.715 0 14.999 0z"/>
    <path fill-rule="evenodd" fill="#FFF" d="m22.272 18.949-2.727-3.953h1.818c-.002-3.429-2.855-6.219-6.363-6.219-1.361 0-2.62.423-3.655 1.137l-1.018-1.477A8.267 8.267 0 0 1 15 6.999c4.517 0 8.179 3.58 8.181 7.997h1.818l-2.727 3.953zM8.636 15c0 3.431 2.855 6.222 6.364 6.222 1.36 0 2.62-.424 3.655-.382l1.019.72A8.265 8.265 0 0 1 15 23c-4.519 0-8.182-3.582-8.182-8H5l2.727-3.53L10.454 15H8.636z"/>
</svg>
