<svg xmlns="http://www.w3.org/2000/svg" width="25" height="24">
    <path fill-rule="evenodd" fill="#00A651" d="M4.961 2.589A11.846 11.846 0 0 1 9.21 0c.449.593 1.02 1.61 1.669 1.389a4.608 4.608 0 0 0 2.079.505c.72 0 1.431-.177 2.412-.505.316.221.887-.796 1.336-1.389a11.858 11.858 0 0 1 4.25 2.589c-.264.695-.37 1.831-.316 2.21.054.758.269 1.491.63 2.148.36.657.855 1.225 1.448 1.642.596.591 1.274.707 1.986.821.706 1.705.706 3.474 0 5.166-1.392.228-2.414 1.087-3.434 2.944-.361.189-.576.922-.63 1.68a5.19 5.19 0 0 0 .316 2.21 11.858 11.858 0 0 1-4.25 2.589c-.449-.593-1.02-1.073-1.336-1.401-.982-.329-1.692-.493-2.412-.493s-1.431.164-2.079.493a4.836 4.836 0 0 0-1.669 1.401 11.998 11.998 0 0 1-4.249-2.576 5.267 5.267 0 0 0 .315-2.223c-.053-.758.424-1.491-.63-1.68-.359-1.125-.855-1.693-1.449-2.11a4.648 4.648 0 0 0-1.985-.821 13.325 13.325 0 0 1 0-5.166c.711-.114 1.39-.243 1.985-.834a4.834 4.834 0 0 0 1.449-1.642c1.054-.657.577-1.39.63-2.148.054-.259-.053-1.515-.315-2.21zm9.796 12.695c.413.026.775-.581 1.066-.973.291-.404.505-.846.629-1.326.125-.493.157-.998.095-1.491-.061-.294-.214-.972.413-.574-1.102-1.257-1.418-1.636-1.795-1.94a3.51 3.51 0 0 0-1.267-.656 3.295 3.295 0 0 0-1.407-.089c-.281.063-.923.228-1.332.48-.82.506-1.417 1.825-1.66 2.425-.243.847-.112 1.96.363 2.742.474.871 1.257 1.503 2.488 1.755.603.266 1.581.14 2.407-.353z"/>
</svg>
