<svg xmlns="http://www.w3.org/2000/svg" width="24" height="24">
    <path fill-rule="evenodd" fill="#9DA7C2" d="M12 0C5.372 0 0 5.372 0 11.999c0 6.628 5.372 12 12 12 6.627 0 11.999-5.372 11.999-12C23.999 5.372 18.627 0 12 0zm0 3.6a3.6 3.6 0 1 1 0 7.199c-1.89 0-3.601-1.611-3.601-3.6C8.399 5.211 10.11 3.6 12 3.6zm0 16.784a8.399 8.399 0 0 0 6.744-3.393c.245-.359.466-.822.084-1.211l-.277-.565a3.599 3.599 0 0 0-3.227-2.016H8.675c-1.392.002-2.505 1.301-3.252 2.065l-.252.528c-.189.386-.021.843.084 1.199A8.4 8.4 0 0 0 12 20.384z"/>
</svg>
