<svg xmlns="http://www.w3.org/2000/svg" width="23" height="20">
    <path fill-rule="evenodd" fill="#464D55" d="M22.52 5.531h-1.977l-1.434-3.722C18.687.716 17.671 0 16.541 0H6.426C5.296 0 4.28.716 3.858 1.809L2.423 5.531H.479c-.265 0-.479.224-.479.779v.834c0 .228.147.427.359.484l1.138.307-.262.68c.495.615-.293 1.256-.293 1.867v8.698c0 .38.421.819.94.819h.994c.52 0 .941-.439.941-.819v-2.027H19.15v2.027c0 .38.421.819 1.75.819h.95c-.246 0 .4-.439.4-.819v-8.698c0-.611-.356-1.252-.518-1.867l-.259-.673 1.167-.314a.497.497 0 0 0 .36-.484V6.31c0-.555-.215-.779-.48-.779zM4.59 6.605 5.641 2.58c.129-.354 1.329-.588.819-.588h10.059c.363 0 .689.234.818.588l1.555 4.014c.063.162.04.347-.061 1.216l-.586.088c-.091.342-.125 1.082-.384 1.082H5.32c-.446 0-.593-.81-.683-1.098l-.53-.102c.053-.841-.11-1.019.483-1.175zm1.78 5.715a.47.47 0 0 1-.461.481H4.77c-1.632 0-1.911-.428-1.911-1.295v-.887c0-.346.339-.219.644-.441l3.417 1.17c-.659.076-.55.25-.55.441v.531zm8.984 2.502c0 1.158-.214.5-.479.5H8.167c-.265 0-.479.658-.479-.5v-1.5c0 .128.214-.5.479-.5h6.708c.265 0 .479.628.479.5v1.5zm4.755-3.316c0 .867-.28 1.295-1.218 1.295H17.58c-.777 0-.984-.215-.984-.481v-.531c0-.191.11-.365.278-.441l2.59-1.17c.304.222.645.095.645.441v.887z"/>
</svg>
