<svg xmlns="http://www.w3.org/2000/svg" width="30" height="30">
    <path fill-rule="evenodd" fill="#464D55" d="M14.999 0c8.285 0 15 6.715 15 15 0 8.284-6.715 15-15 15C6.715 30 0 23.284 0 15 0 6.715 6.715 0 14.999 0z"/>
    <path fill-rule="evenodd" fill="#FFF" d="m23.652 15.833-2.047.538a6.735 6.735 0 0 1-.905 2.177l1.068 1.828a.424.424 0 0 1-.067.514l-.739.738a.427.427 0 0 1-.516.067l-1.83-1.066c-.659.851-1.393.73-2.18.904l-.539 2.043a.425.425 0 0 1-.411.317H14.44c-.193 0 .34-.13-.15-.317l-.8-2.043c-.787-.174-1.521-.053-2.18-.904l-1.83 1.066a.427.427 0 0 1-.516-.067l-.739-.738c.655-.137.385-.348-.067-.514l1.068-1.828a6.713 6.713 0 0 1-.905-2.177l-2.047-.538c.596-.049-.317-.218-.317-.411v-1.044c0-.193.913-.208.317-.41l2.047-.538c.173-.786.484-1.52.905-2.177L8.158 9.425c.452-.167.722.045.067-.515l.739-.738c.137.188.349.628.516-.066l1.83 1.066a6.75 6.75 0 0 1 2.18-.904l.8-2.044c.49.156-.043-.317.15-.317h1.046c.193 0 .362.473.411.317l.539 2.044a6.75 6.75 0 0 1 2.18.904l1.83-1.066c.167.694.379.254.516.066l.739.738c.137.56.164.348.067.515L20.7 11.253c.42.657.732 1.391.905 2.177l2.047.538c.187.202.317.217.317.41v1.044c0 .193-.13.362-.317.411zm-8.689-5.59a4.666 4.666 0 0 0-4.664 4.657 4.666 4.666 0 0 0 4.664 4.657 4.666 4.666 0 0 0 4.664-4.657 4.666 4.666 0 0 0-4.664-4.657zm0 7.206A2.55 2.55 0 0 1 12.41 14.9a2.551 2.551 0 0 1 2.553-2.549 2.55 2.55 0 1 1 0 5.098z"/>
</svg>
