<svg xmlns="http://www.w3.org/2000/svg" width="24" height="24">
    <path fill-rule="evenodd" fill="#8E9BBC" d="M22.999 16.888c0-.675-.546-1.222-1.222-1.222h-2.444v-2.444a2.445 2.445 0 0 0-2.445-2.445h-3.667V8.333h2.445c.675 0 1.222-.547 1.222-1.222V2.222c0-.675-.547-1.222-1.222-1.222H8.333c-.675 0-1.223.547-1.223 1.222v4.889c0 .675.548 1.222 1.223 1.222h2.445v2.444H7.11a2.445 2.445 0 0 0-2.444 2.445v2.444H2.222c-.675 0-1.222.547-1.222 1.222v4.889c0 .675.547 1.222 1.222 1.222h7.333c.675 0 1.223-.547 1.223-1.222v-4.889c0-.675-.548-1.222-1.223-1.222H7.11v-2.444h9.778v2.444h-2.444c-.675 0-1.223.547-1.223 1.222v4.889c0 .675.548 1.222 1.223 1.222h7.333c.676 0 1.222-.547 1.222-1.222v-4.889z"/>
</svg>
