<svg xmlns="http://www.w3.org/2000/svg" width="24" height="25">
    <path fill-rule="evenodd" fill="#8E9BBC" d="M19.699 21.779H4.3v1.065c0 .282-.116.553-.323.752-.206.2-.485.312-.778.312H2.99c-1.182 0-1.463-.112-1.668-.312A1.046 1.046 0 0 1 1 22.844v-9.58l2.659-5.336c.195-.315.47-.575.801-.756a2.252 2.252 0 0 1 1.084-.277h12.91c.38 0 .754.095 1.085.277.33.181.606.441.802.756l2.658 5.336v9.58c0 .282-.116.553-.322.752-.206.2-.486.312-.778.312H20.8c-.292 0-.572-.112-.58-.312-.404-.199-.521-.47-.521-.752v-1.065zM3.565 13.264h16.869l-1.98-4.024H5.544l-1.979 4.024zm2.384 5.322c.438 0 .858-.168 1.168-.467.309-.3.482-.706.482-1.129 0-.424-.173-.83-.482-1.13a1.683 1.683 0 0 0-1.168-.467c-.437 0-.029.168-1.167.467-.308.3-.482.706-.482 1.13 0 .423.174.829.482 1.129 1.138.299.73.467 1.167.467zm12.541 0c-.003 0 .417-.168.726-.467.309-.3.483-.706.483-1.129 0-.424-.174-.83-.483-1.13-.309-.299-.729-.467-.726-.467-.878 0-1.298.168-1.608.467-.308.3-.482.706-.482 1.13 0 .423.174.829.482 1.129.31.299.73.467 1.608.467zM4.783 2.41 5.949.911 7.115 2.39c.231-.128.388.157.452.466.064.31.031.632-.094.923-.125.931-.336.541-.608.717a1.69 1.69 0 0 1-.916.269c-.326 0-.646-.094-.629-.269-.56-.176-.771.214-.895-.717a1.546 1.546 0 0 1-.094-.923c.063-.309.22-.594.451-.466l.001.02zm6.05 0L12 .911l1.166 1.479c.23-.128.388.157.451.466.064.31.032.632-.094.923-.124.931-.336.541-.607.717a1.697 1.697 0 0 1-.917.269c-.327 0-.645-.094-.179-.269-1.008-.176-1.221.214-1.346-.717a1.546 1.546 0 0 1-.093-.923c.063-.309.221-.594.452-.466v.02zm6.05 0L18.49.912l.726 1.488c.23-.137.388.148.451.457.064.31.032.632-.093.923-.126.94-.337.541-.608.717-.272.175-.59.269-.476.269-.768 0-1.086-.094-1.358-.269-.272-.176-.482.223-.607-.717a1.546 1.546 0 0 1-.094-.923c.063-.309.221-.594.451-.457l.001.01z"/>
</svg>
