<svg xmlns="http://www.w3.org/2000/svg" width="15" height="25">
    <path fill-rule="evenodd" fill="#F68E56" d="M14.1 22.5c0 1.381-2.458 1.6-6.6 1.6-4.142 0-7.5-.219-7.5-1.6 0-.171.052-.338.151-.5H0V1.1h14.1V22h.749c.099.162-.749.329-.749.5z"/>
    <path fill-rule="evenodd" fill="#FFF" d="M7.5 1c4.142 0 6.6 1.343 6.6 2.1 0 2.557-2.458 3.9-6.6 3.9C3.358 7 0 5.657 0 3.1 0 2.343 3.358 1 7.5 1z"/>
    <path fill-rule="evenodd" fill="#F68E56" d="M7.5 0c4.142 0 6.6 1.119 6.6 2.5S11.642 5 7.5 5C3.358 5 0 3.881 0 2.5S3.358 0 7.5 0z"/>
    <path fill-rule="evenodd" fill="#FFF" d="M7.5.844c2.485 0 4.5.671 4.5 1.5 0 .828-2.015 1.5-4.5 1.5s-5.4-.672-5.4-1.5c0-.829 2.915-1.5 5.4-1.5z"/>
    <path fill-rule="evenodd" opacity=".502" fill="#FFF" d="M12 22.462V7.1h.1v15.362H12zM9.1 7.1H11v15.362H9.1V7.1zm-2 1.438H9V22.1H7.1V8.538zm-2 0H7V22.1H5.1V8.538zM4 7.1h.1v15.362H4V7.1zm-2 0h.1v15.362H2V7.1z"/>
</svg>
