<svg xmlns="http://www.w3.org/2000/svg" width="40" height="40">
    <path fill-rule="evenodd" fill="#ADB5BD" d="M32.724 15.224v-1.868H26.92l-.17-.001-.18.001H3.636v18.015h10.95c.618 1.285 1.724 2.476 3.184 3.512-.661.032-.624.059-.592.091H0V.746h36.36v17.811c-.388-.267-.81-1.036-.64-1.077-1.363-1.141-2.155-1.743-2.996-2.256zM9.9 4.349H3.636v5.404H9.9V4.349zm9.748 15.247c1.773-1.758 4.101-2.638 7.102-2.638 1.651 0 3.978.88 5.752 2.638a8.948 8.948 0 0 1 1.164 11.326l6.33 6.27-2.571 2.547-5.435-6.268c-2.409.999-4.161 1.502-5.24 1.502-3.001 0-5.329-.043-7.102-2.638-2.678-3.518-2.678-9.221 0-12.739zm2.571 10.191c1.029 1.021 2.4 1.583 4.531 1.583.781 0 2.151-.562 3.181-1.583a5.346 5.346 0 0 0 1.598-3.822 5.35 5.35 0 0 0-1.598-3.822c-1.03-1.02-2.4-1.582-3.181-1.582-2.131 0-3.502.562-4.531 1.582a5.35 5.35 0 0 0-1.598 3.822c0 1.444.568 2.801 1.598 3.822z"/>
</svg>
